<svg id="visual" viewBox="0 0 900 500" width="900" height="500" xmlns="http://www.w3.org/2000/svg" xmlns:xlink="http://www.w3.org/1999/xlink" version="1.1"><rect x="0" y="0" width="900" height="500" fill="#2564e3"></rect><path d="M0 322L129 346L257 332L386 362L514 362L643 321L771 341L900 372L900 501L771 501L643 501L514 501L386 501L257 501L129 501L0 501Z" fill="#185adb"></path><path d="M0 334L129 333L257 345L386 394L514 393L643 399L771 382L900 344L900 501L771 501L643 501L514 501L386 501L257 501L129 501L0 501Z" fill="#2847c7"></path><path d="M0 395L129 367L257 372L386 381L514 416L643 382L771 391L900 367L900 501L771 501L643 501L514 501L386 501L257 501L129 501L0 501Z" fill="#3034b2"></path><path d="M0 452L129 438L257 440L386 419L514 445L643 406L771 429L900 432L900 501L771 501L643 501L514 501L386 501L257 501L129 501L0 501Z" fill="#341f9d"></path><path d="M0 462L129 471L257 475L386 454L514 478L643 469L771 440L900 449L900 501L771 501L643 501L514 501L386 501L257 501L129 501L0 501Z" fill="#350087"></path></svg>